<svg xmlns="http://www.w3.org/2000/svg" xmlns:xlink="http://www.w3.org/1999/xlink" id="Layer_1" x="0px" y="0px" viewBox="0 0 255.12 68.03" style="enable-background:new 0 0 255.12 68.03;" xml:space="preserve"><style type="text/css">	.st0{fill:#145CC6;}	.st1{fill:#EF3346;}</style><g>	<g>		<g>			<g>				<polygon class="st0" points="68.03,34.02 56.49,45.56 52.48,41.54 60,34.02 52.48,26.5 56.49,22.48     "></polygon>				<polygon class="st0" points="15.55,41.54 11.54,45.56 0,34.02 11.54,22.48 15.56,26.5 8.03,34.02     "></polygon>				<polygon class="st1" points="49.57,15.56 34.01,31.11 18.46,15.56 34.01,0     "></polygon>				<polygon class="st1" points="49.57,52.48 34.01,68.03 18.46,52.48 34.01,36.92     "></polygon>			</g>			<path id="Path_1245_00000013910719754576375180000008797357468471659682_" class="st0" d="M85.04,14.01h25.38v7.15H92.59v9.73    h16.04v7.15H92.59v15.98h-7.55V14.01z M119.12,22.39c-1.26,0.02-2.48-0.49-3.35-1.4c-0.91-0.88-1.41-2.09-1.4-3.35    c-0.02-1.26,0.49-2.46,1.4-3.33c0.88-0.89,2.1-1.39,3.35-1.37c1.25-0.02,2.45,0.47,3.33,1.37c0.9,0.87,1.39,2.08,1.37,3.33    c0.02,1.26-0.48,2.47-1.37,3.35C121.58,21.91,120.37,22.41,119.12,22.39L119.12,22.39z M115.43,25.52h7.32v28.5h-7.33    L115.43,25.52z M129.32,25.52h6.88v3.58h0.45c0.9-1.38,2.14-2.51,3.61-3.27c1.56-0.81,3.3-1.23,5.06-1.2    c1.85-0.04,3.68,0.45,5.25,1.42c1.4,0.85,2.51,2.11,3.18,3.61c0.95-1.51,2.27-2.76,3.83-3.63c1.75-0.96,3.73-1.45,5.73-1.4    c2.8-0.19,5.52,0.92,7.41,2.99c1.8,2.3,2.7,5.17,2.54,8.08v18.33h-7.27V37.03c0.1-1.49-0.35-2.96-1.26-4.14    c-0.88-0.99-2.17-1.52-3.49-1.45c-1.8-0.05-3.51,0.8-4.55,2.26c-1.21,1.74-1.81,3.83-1.71,5.95v14.36h-7.31V37.03    c0.1-1.5-0.37-2.97-1.31-4.14c-0.97-1.01-2.33-1.54-3.72-1.45c-1.73-0.03-3.37,0.82-4.33,2.26c-1.17,1.76-1.75,3.84-1.65,5.95    v14.37h-7.32L129.32,25.52z M179.49,25.52h6.88v3.47h0.45c0.86-1.3,2.03-2.37,3.41-3.1c1.57-0.86,3.35-1.29,5.14-1.26    c2.47-0.03,4.9,0.64,7.01,1.93c2.12,1.3,3.83,3.16,4.95,5.38c1.22,2.43,1.83,5.12,1.79,7.83c0.05,2.72-0.56,5.42-1.79,7.85    c-1.12,2.21-2.83,4.07-4.95,5.37c-2.11,1.29-4.54,1.96-7.01,1.93c-1.8,0.03-3.58-0.39-5.17-1.22c-1.38-0.7-2.55-1.76-3.38-3.07    h-0.45l0.45,4.02v11.44h-7.33L179.49,25.52z M194.07,48.16c1.36,0.01,2.69-0.36,3.86-1.06c1.2-0.71,2.18-1.74,2.85-2.96    c0.73-1.34,1.09-2.84,1.06-4.36c0.03-1.52-0.34-3.02-1.06-4.36c-0.66-1.22-1.65-2.24-2.85-2.94c-1.17-0.68-2.5-1.04-3.86-1.03    c-1.34,0-2.65,0.35-3.8,1.03c-1.2,0.7-2.19,1.72-2.85,2.94c-0.73,1.34-1.09,2.84-1.06,4.36c-0.03,1.52,0.34,3.02,1.06,4.36    c0.67,1.22,1.65,2.25,2.85,2.96C191.42,47.79,192.73,48.16,194.07,48.16L194.07,48.16z M214.09,14.01h7.32v40.02h-7.33    L214.09,14.01z M241.31,54.92c-2.68,0.04-5.32-0.64-7.66-1.96c-2.24-1.27-4.09-3.13-5.34-5.38c-1.31-2.37-1.97-5.04-1.93-7.74    c-0.02-2.64,0.63-5.25,1.9-7.57c1.23-2.29,3.04-4.22,5.26-5.58c2.25-1.38,4.85-2.1,7.49-2.07c2.66-0.07,5.29,0.58,7.6,1.9    c2.08,1.22,3.76,3.03,4.83,5.2c1.12,2.28,1.68,4.79,1.65,7.32c0,0.82-0.05,1.64-0.17,2.45h-21.41c0.22,2.01,1.19,3.86,2.71,5.19    c1.46,1.18,3.29,1.81,5.17,1.76c1.52,0.04,3.02-0.34,4.33-1.09c1.2-0.71,2.19-1.73,2.88-2.94l5.93,2.91    C251.98,52.2,246.82,55.16,241.31,54.92z M248.07,36.32c-0.1-0.95-0.43-1.87-0.98-2.66c-0.61-0.91-1.44-1.66-2.4-2.18    c-1.11-0.6-2.35-0.9-3.61-0.87c-1.63-0.04-3.23,0.5-4.5,1.54c-1.29,1.09-2.24,2.54-2.71,4.16L248.07,36.32z"></path>		</g>	</g></g></svg>