<?xml version="1.0" encoding="utf-8"?>
<!-- Generator: Adobe Illustrator 28.0.0, SVG Export Plug-In . SVG Version: 6.00 Build 0)  -->
<svg version="1.1" id="Layer_1" xmlns="http://www.w3.org/2000/svg" xmlns:xlink="http://www.w3.org/1999/xlink" x="0px" y="0px"
	 viewBox="0 0 101 36" style="enable-background:new 0 0 101 36;" xml:space="preserve">
<g>
	<path fill="#EB0028" d="M61.6,24.9c3.5-2.2,5.8-6.8,5.8-11.4C67.4,4.2,59.9,0,53,0H37.1c-1.4,0-2.5,1.1-2.5,2.5V36h6.2
		c1.8,0,3.3-1.5,3.3-3.3c0,0,0,0,0,0v-5.5h7.6l6.2,8.9h10.3l-7.4-10.5C60.7,25.5,61.6,24.9,61.6,24.9z M53.1,18.4H44V8.6h9.1
		c3.2,0,4.9,2.5,4.9,4.9C57.9,15.4,56.6,18.4,53.1,18.4L53.1,18.4z M0,1.8v6.9h11.5V36h6.1c1.8,0,3.3-1.5,3.3-3.3v-24h8.7
		c1.6,0,2.8-1.3,2.8-2.8c0,0,0,0,0,0V0H1.8C0.8,0,0,0.8,0,1.8L0,1.8z M70.4,0c-1,0-1.8,0.8-1.8,1.8c0,0,0,0,0,0v6.9H80V36h6.1
		c1.8,0,3.3-1.5,3.3-3.3c0,0,0,0,0,0v-24h8.7c1.6,0,2.8-1.3,2.8-2.8c0,0,0,0,0,0V0L70.4,0z"/>
</g>
</svg>
